<svg xmlns="http://www.w3.org/2000/svg" width="53.483" height="55"><path d="M46.14 25.15V11.278c0-3.296-2.699-6.02-5.996-6.02h-.747v-.94a4.26 4.26 0 0 0-8.518 0v.94H15.262v-.94a4.318 4.318 0 0 0-8.637 0v.94H5.98C2.683 5.259 0 7.983 0 11.279V43.13c0 3.297 2.683 6.021 5.98 6.021h18.763A16.31 16.31 0 0 0 37.232 55c8.956 0 16.252-7.297 16.252-16.253 0-5.677-2.966-10.692-7.343-13.597ZM33.246 4.318a1.866 1.866 0 0 1 1.882-1.899 1.884 1.884 0 0 1 1.904 1.9v4.607h-3.786V4.318Zm-24.253 0a1.92 1.92 0 0 1 1.945-1.899c1.064 0 1.959.835 1.959 1.9v4.607H8.992V4.318Zm-6.626 6.96c0-1.992 1.622-3.653 3.614-3.653h.645v2.534c0 .653.546 1.133 1.2 1.133h6.225c.653 0 1.212-.48 1.212-1.133V7.625h15.617v2.534a1.103 1.103 0 0 0 1.136 1.133h6.225a1.12 1.12 0 0 0 1.157-1.133V7.625h.747a3.668 3.668 0 0 1 3.63 3.653v3.8H2.366v-3.8ZM5.98 46.785c-1.992 0-3.614-1.663-3.614-3.655V17.444h41.408v6.42a16.237 16.237 0 0 0-6.533-1.37c-8.956 0-16.247 7.307-16.247 16.263a16.224 16.224 0 0 0 2.11 8.028H5.98Zm31.252 5.828c-7.664 0-13.877-6.213-13.877-13.877 0-7.664 6.213-13.876 13.877-13.876 7.664 0 13.877 6.212 13.877 13.876-.009 7.66-6.217 13.868-13.877 13.877Z" fill="#12406f" fill-rule="evenodd" data-name="Path 4707"/></svg>