<svg xmlns="http://www.w3.org/2000/svg" width="784.294" height="591.198" viewBox="1133.903 66 784.294 591.198"><g data-name="Mask Group 99" transform="translate(395.185 -49)" clip-path="url(&quot;#a&quot;)"><g data-name="Mask Group 98" transform="translate(783.226 95.842)" clip-path="url(&quot;#b&quot;)"><g data-name="Group 17416"><path d="M11.59 19.158h728.197v591.198H11.59V19.158z" fill="#1d99b3" fill-rule="evenodd" data-name="Rectangle 5511"/><g data-name="Group 17406"><path d="M360.554 282.66h120.851l27.466 219.73-112.48 1.668-63.303-1.669 27.466-219.728Z" fill="#fff" fill-rule="evenodd" data-name="Path 24021"/><path d="M421.519 315.62a95.674 95.674-.383 1 1 .1-.001z" fill="#fff" fill-rule="evenodd" data-name="Ellipse 346"/></g><path d="M162.802 687.164H406.68v-81.473l-231.145-26.722L0 579.179l162.802 107.985Z" fill-rule="evenodd" fill="url(&quot;#c&quot;)" transform="translate(333.107 -76.809)" data-name="Path 24022"/><path d="m476.583 498.85 32.288 3.425-26.131-209.238h-31.738l25.58 205.812Z" fill="#1d99b3" fill-rule="evenodd" data-name="Path 24023"/><g data-name="Group 17407"><path d="m345.102 294.782-.002-.018h-31.651c20.741-17.548 33.92-43.755 33.92-73.053 0-47.478-34.585-86.872-79.935-94.378A96.234 96.234 0 0 1 283.396 126c52.84 0 95.673 42.834 95.673 95.674 0 29.322-13.195 55.558-33.967 73.108Z" fill-rule="evenodd" fill="url(&quot;#d&quot;)" transform="translate(137.612 -1.727)" data-name="Path 24024"/></g><path d="m739.787 570.317-107.966-26.84c18.281 10.236 51.112 28.902 62.251 37.1 15.739 6.65 23.148 12.192 26.623 15.829l19.092 7.419v6.53H621.046l-28.1-12.502-31.323 12.502h-19.205c-.08-.533 2.042-1.622 3.667-1.489.956-.365 6.275-2.347 6.622-2.451l-2.149-.927s18.856-11.103 25.282-14.792c6.422-3.685 26.675 3.44 26.675 3.44l43.28 11.775c2.503-5.284 7.08-10.03 10.557-12.744-1.905-5.146-3.46-8.613-3.46-8.613l3.917.087.208.037c-1.03-.882-2.155-1.849-3.36-2.879l-111.729-32.204-103.613-45.344-.56-.295-9.806-2.403s-8.39-1.259-8.788-1.297c-1.439-.158-2.06-.955-2.06-.955l6.287-.126 9.649 1.5-2.309-1.425 4.86-.06 6.737 3.908.005-.007s75.312 27.416 99.291 37.533c45.598 12.295 68.176 16.221 88.042 20.493-13.43-11.638-26.731-23.317-31.273-27.77-.008-.013-.028-.03-.034-.038l-.079-.024.029-.03c-9.507-9.422 7.95-7.705 9.866-7.49l.059-.036 131.556 38.956v5.632Z" fill="#1d99b3" fill-rule="evenodd" data-name="Path 24025"/><g data-name="Group 17414"><path d="m534.99 398.41-2.504-6.288 20.025-16.537 3.49 7.732-21.01 15.093Z" fill="#405c96" fill-rule="evenodd" data-name="Path 24026"/><g data-name="Group 17413"><path d="M380.976 313.358c-.726-.446-1.44-.843-2.07-1.51-.634-.674-4.853-8.919-4.853-8.919s-1.53 1.075-.436 3.025c1.052 1.876.35 2.477.35 2.477s-3.509-1.196-4.745-1.631c-2.228-.884-3.195-1.301-4.742-1.273-.607.768-1.18 1.71-1.236 2.144-.054.421 1.608 1.281 3.533 2.473-1.077-.322-3.651-1.569-3.896-.492.378.436 4.383 2.209 4.606 2.334a65.72 65.72 0 0 0 4.511 2.295c1.885.858 4.704 1.354 4.704 1.354l2.08 1.262s1.217-1.296 2.194-3.54Z" fill="#cae6f2" fill-rule="evenodd" data-name="Path 24027"/><g data-name="Group 17412"><g data-name="Group 17410"><g data-name="Group 17408"><path d="m607.34 284.486-4.215-.626-.393.172c-.194.085-4.797 2.163-5.727 8.89-.92 6.642 2.036 9.6 2.16 9.703l.34.322 4.779.782.482-2.958-3.763-.613c-.503-.744-1.582-2.85-1.036-6.824.568-4.094 2.784-5.843 3.634-6.37l3.307.485.433-2.963Z" fill="#002b6a" fill-rule="evenodd" data-name="Path 24028"/><path d="m590.755 291.807.56.34s.73.408.948 1.013c.562 1.538 3.436 3.463 4.184 7.72 1.693-.403.992-2.724.638-4.939.28-.203.744-.089 1.332.126.634.229.908.284 1.477.727.191 1.376.43 1.959.43 1.959s.691.212 1.7.234c.606.061 1.799-.137 1.451-1.512-.307-1.224.584-1.534.659-2.186.066-.658-.483-1.46-.163-2.136.452-.944-.408-1.668-1.263-2.22-.75-.483-3.305-1.684-4.474-2.13-1.93-.754-4.059-.851-4.059-.851l-2.133-.643-1.287 4.498Z" fill="#cae6f2" fill-rule="evenodd" data-name="Path 24029"/></g><g data-name="Group 17409"><path d="m621.339 266.63 12.571 1.772-.18 29.837-9.048 28.637-12.265-1.727 8.922-58.519Z" fill="#405c96" fill-rule="evenodd" data-name="Path 24030"/><path d="m644.55 329.672 9.197-58.481-23.038-3.24-.31 30.08-8.885 28.403 23.036 3.238Z" fill="#002b6a" fill-rule="evenodd" data-name="Path 24031"/><path d="m619.578 326.157 8.95-28.213.246-30.263-18.67-2.63-9.195 58.483 18.669 2.623Z" fill="#002b6a" fill-rule="evenodd" data-name="Path 24032"/><path d="m633.585 301.601.993-6.265-5.953-.867-.985 6.269 5.945.863Z" fill="#fff" fill-rule="evenodd" data-name="Path 24033"/></g></g><path d="M597.498 338.784s-16.105-2.612-40.267 8.338c-25.492 11.541-74.523-30.201-74.523-30.201s84.892 9.285 109.444 15.63c6.6 1.699 5.346 6.233 5.346 6.233Z" fill="#405c96" fill-rule="evenodd" data-name="Path 24034"/><path d="M470.485 279.45s-12.782-.9-22.737 19.337c-9.937 20.238-17.896 35.81-17.896 35.81L380.8 312.299l-3.185 6.4s32.925 19.648 44.923 26.616c11.997 6.962 20.394-1.097 22.08-3.12 1.687-2.026 23.32-32.49 23.32-32.49l2.547-30.255Z" fill="#002b6a" fill-rule="evenodd" data-name="Path 24035"/><path d="M329.911 384.392s-31.676-12.755-45.285-31.75c-9.75-13.608-5.475-34.517-5.475-34.517l50.76 66.267Z" fill-rule="evenodd" fill="url(&quot;#e&quot;)" transform="translate(177.774 -33.573)" data-name="Path 24036"/><path d="m435.675 493.307.072 5.962-5.055.007-.076-2.112-7.036 2.13-6.497-.003s-.784-1.314.386-1.53c.323-.066 6.52-1.844 6.52-1.844l5.62-3.412 6.066.802Z" fill="#002b6a" fill-rule="evenodd" data-name="Path 24037"/><path d="M534.473 397.062s19.542-8.859 28.65-32.48c4.034 9.724 3.706 39.495 3.215 55.225l67.367-37.482.009.02 1.278-3.512 4.72 1.757-.663 2.008 7.334.443 6.071 2.41s.271 1.493-.896 1.298c-.333-.053-6.756-.678-6.756-.678l-5.952 1.594-3.437-3.204 2.856 3.58s-57.445 50.594-59.989 52.776c-6.012 5.152-20.75 6.86-27.656-6.51l-.078-.04.036-.033c-.01-.015-.017-.039-.031-.05-7.38-14.506-7.24-14.13-16.078-37.122Z" fill="#002b6a" fill-rule="evenodd" data-name="Path 24038"/><path d="M276.509 393.342s-21.747-23.879-45.09-44.693c-14.111-12.593-13.945-30.652-13.945-30.652s4.241-7.53 9.442-9.16c12.67-3.982 33.882 1.498 52.276 18.396 25.945 23.827 39.821 43.243 39.821 43.243L305.2 383.672l-24.92 9.548-3.77.122Z" fill-rule="evenodd" fill="url(&quot;#f&quot;)" transform="translate(239.347 -31.828)" data-name="Path 24039"/><path d="M521.21 360.81s-5.302-11.41-15.694-14.714c-11.285-3.59-20.687-16.825-20.687-16.825s8.836 9.189 20.42 15.39c11.588 6.204 18.591 15.094 18.591 15.094l-2.63 1.055Z" fill="#9fcdde" fill-rule="evenodd" data-name="Path 24040"/><path d="M497.672 336.93s8.422 6.02 24.294 11.529c3.837-2.59 5.947-3.838 8.822-4.685 2.885-.838 6.23-1.195 6.23-1.195s-6.924-8.184-9.724-10.103c-2.798-1.913-6.554-2.47-6.554-2.47l-15.063-.613-8.005 7.537Z" fill="#9fcdde" fill-rule="evenodd" data-name="Path 24041"/><path d="m469.385 276.278 43.417-19.572s9.718-3.165 19.895.5c11.092 6.076 59.948 29.964 59.948 29.964l-2.061 5.646-68.37-25.054s-14.3 17.077-30.673 25.583c-13.107.61-22.156-17.067-22.156-17.067Z" fill="#002b6a" fill-rule="evenodd" data-name="Path 24042"/><path d="M460.236 288.255s-.735.896-1.355 2.502c.99 2.268 2.372 3.32 2.372 3.32s-.313 12.687 6.68 22.857c13.9 20.212 54.583 27.064 54.583 27.064l8.206-5.387-7.109-10.26s-35.917 2.751-50.628-16.155c-8.5-10.924-9.542-18.363-9.542-18.363s1.53-1.181 2.155-3.51c-3.685-.487-5.362-2.068-5.362-2.068Z" fill="#74428d" fill-rule="evenodd" data-name="Path 24043"/><path d="m557.959 338.082-38.09 23.491-55.403 48.212-34.798 82.304 7.015 2.012s38.063-55.889 44.424-70.249c31.95-23.038 49.148-25.373 63.465-35.473 39.108-27.6 13.387-50.297 13.387-50.297Z" fill="#002b6a" fill-rule="evenodd" data-name="Path 24044"/><g data-name="Group 17411"><path d="m351.302 306.295-3.797-5.076-7.628-5.073s-2.144 6.1-2.435 9.751c-.268 3.353-3.503 5.466-5.005 5.663-3.194.41-8.305 1.78-8.305 1.78s9.866-.42 17.378 4.23c2.218 1.115 9.792-11.275 9.792-11.275Z" fill-rule="evenodd" fill="url(&quot;#g&quot;)" transform="translate(118.08 -29.93)" data-name="Path 24045"/><path d="M442.514 283.353c2.93-.39 7.013-.559 9.41-1.147 3.404-.833 3.557-4.417 3.557-4.417l1.23-6.2s1.245-.839 2.095-2.285c.337-.592.867-2.907-1.903-3.604-4.086-1.033-1.952-11.423-1.952-11.423l-5.567-.824-4.486 3.192-6.768 14.642s.019.804 1.02.8c.988 0 2.293.182 2.293.182s.46 10.08.492 10.743c.033.492.181.398.579.341Z" fill="#cae6f2" fill-rule="evenodd" data-name="Path 24046"/><path d="M443.201 265.502c.05.773.253.828 1.02.753.75-.085 1.823-.457 2.828-.618.193-.036-1.394-.571-3.527-1.35-.711-.268-.394.399-.321 1.215Z" fill="#002b6a" fill-rule="evenodd" data-name="Path 24047"/><path d="M464.488 255.717c-14.163-6.24-19.577-6.06-20.537-2.185-.162.731.023 2.349.947 3.113 4.342-.972 8.532-1.472 7.66 1.63-.119.975-3.27 11.817.316 11.73.583-1.46 2.262-5.048 5.082-3.894 1.634.691.458 4.578 7.76 5.14-.27-6.035.059-13.43-1.228-15.534Z" fill="#002b6a" fill-rule="evenodd" data-name="Path 24048"/></g><path d="m469.517 276.888.692-.603-.796 13.194s-4.034 1.02-8.42-1.355c4.9-3.572 8.524-11.236 8.524-11.236Z" fill="#9fcdde" fill-rule="evenodd" data-name="Path 24049"/><path d="M469.317 276.35s-3.432 43.806 49.02 49.99c97.695 11.509 100.228 19.078 100.228 19.078s-4.818-18.453-45.007-26.134c-76.594-14.631-104.24-42.935-104.24-42.935Z" fill="#002b6a" fill-rule="evenodd" data-name="Path 24050"/><path d="M560.234 329.525s-44.405-51.058-66.924-54.208c-14.12-1.975-23.993.997-23.993.997s3.856 27.307 36.55 39.249c32.69 11.947 54.367 13.962 54.367 13.962Z" fill="#002b6a" fill-rule="evenodd" data-name="Path 24051"/></g></g></g></g></g><g data-name="tick"><path d="M1003.372 679 788.95 464.85s-61.111-51.386 16.262-115.18c0 0 14.587-10.814 1.593-23.22 0 0-6.455-10.227-22.634 4.023 0 0-90.367 64.13-16.262 154.412L962.627 679h40.745Z" fill="#12426d" fill-rule="evenodd" data-name="Path 24126"/><path d="m788.028 453.701 36.884 37.975s8.634 8.131 20.37-1.425c0 0 7.294-10.311-1.928-20.12l-30.765-29.926s-25.4-28.753 4.443-52.56l229.187-229.272h-39.147L807.979 357.466s-33.112 26.658-32.526 52.98c0-.084-2.515 24.813 12.575 43.255Z" fill="#54a0d4" fill-rule="evenodd" data-name="Path 24127"/><path d="M107.72 26.035 0 135.598l19.113 19.113 126.581-126.58 51.303 51.805s12.574 14.67 22.634 3.353c0 0 9.64-11.316-.42-18.861l-49.626-49.626s-17.772-29.508-45.1-5.198l-16.765 16.43Z" fill-rule="evenodd" fill="url(&quot;#h&quot;)" transform="rotate(-90 688.239 -127.656)" data-name="Path 24128"/></g></g><defs><linearGradient x1=".5" y1=".037" x2=".5" y2=".897" id="c"><stop stop-color="#fff" offset="0"/><stop stop-color="#1d99b3" offset="1"/></linearGradient><linearGradient x1=".5" y1=".804" x2=".5" y2="-.44" id="d"><stop stop-color="#fff" offset="0"/><stop stop-color="#1d99b3" offset="1"/></linearGradient><linearGradient x1="2.416" y1="-.045" x2=".229" y2=".58" id="e"><stop stop-color="#9fc7d4" offset="0"/><stop stop-color="#fff" offset="1"/></linearGradient><linearGradient x1="1.073" y1=".415" x2=".421" y2=".495" id="f"><stop stop-color="#9fc7d4" offset="0"/><stop stop-color="#fff" offset="1"/></linearGradient><linearGradient x1="-21.503" y1="2.61" x2="-20.899" y2="2.19" id="g"><stop stop-color="#72aeca" offset="0"/><stop stop-color="#cae6f2" offset="1"/></linearGradient><linearGradient x1="0" y1=".499" x2="1" y2=".499" id="h"><stop stop-color="rgba(255,255,255,0 )" offset="0"/><stop stop-color="rgba(26,69,112,0.97 )" offset=".504"/><stop stop-color="#12426d" offset="1"/></linearGradient><clipPath id="b"><path d="m791.714 391.99-468.169-5.058L71.617 138.374 17.506 88.667V61.433L71.616.858l244.566-246.516 466.13-7.23 9.402 644.877Z" data-name="Path 24125" transform="translate(-17.506 252.888)"/></clipPath><clipPath id="a"><path d="M0 0h786.013v519H0V0z" data-name="Rectangle 5580" transform="translate(738.802 160)"/></clipPath></defs></svg>