<svg xmlns="http://www.w3.org/2000/svg" width="36.157" height="36.149" viewBox="885.921 2979.752 36.157 36.149"><path d="M904.003 2988.558a9.253 9.253 0 0 0-9.268 9.268 9.253 9.253 0 0 0 9.268 9.269 9.253 9.253 0 0 0 9.268-9.269 9.253 9.253 0 0 0-9.268-9.268Zm0 15.294c-3.315 0-6.025-2.702-6.025-6.026a6.031 6.031 0 0 1 6.025-6.025 6.031 6.031 0 0 1 6.026 6.025c0 3.324-2.71 6.026-6.026 6.026Zm11.81-15.673a2.157 2.157 0 0 1-2.163 2.162 2.162 2.162 0 1 1 2.162-2.162Zm6.138 2.194c-.138-2.896-.799-5.46-2.92-7.574-2.114-2.113-4.679-2.775-7.575-2.92-2.984-.17-11.93-.17-14.914 0-2.888.137-5.453.798-7.574 2.912-2.122 2.113-2.775 4.678-2.92 7.574-.17 2.985-.17 11.93 0 14.915.137 2.895.798 5.46 2.92 7.574 2.121 2.113 4.678 2.775 7.574 2.92 2.984.17 11.93.17 14.914 0 2.896-.137 5.461-.799 7.575-2.92 2.113-2.114 2.774-4.679 2.92-7.574.169-2.985.169-11.922 0-14.907Zm-3.856 18.109a6.1 6.1 0 0 1-3.436 3.436c-2.38.944-8.026.726-10.656.726-2.63 0-8.284.21-10.655-.726a6.1 6.1 0 0 1-3.437-3.436c-.943-2.38-.726-8.026-.726-10.656 0-2.63-.21-8.284.726-10.655a6.1 6.1 0 0 1 3.437-3.436c2.38-.944 8.025-.726 10.655-.726 2.63 0 8.284-.21 10.656.726a6.1 6.1 0 0 1 3.436 3.436c.944 2.38.726 8.026.726 10.655 0 2.63.218 8.284-.726 10.656Z" fill="#fff" fill-rule="evenodd" data-name="Icon awesome-instagram"/></svg>