<svg xmlns="http://www.w3.org/2000/svg" width="32.831" height="32.831" viewBox="807.31 2981.005 32.831 32.831"><path d="M837.796 2981.005h-28.149c-1.29 0-2.337 1.063-2.337 2.367v28.098c0 1.304 1.048 2.367 2.337 2.367h28.149c1.29 0 2.345-1.063 2.345-2.367v-28.098c0-1.304-1.056-2.367-2.345-2.367Zm-20.564 28.141h-4.866v-15.668h4.874v15.668Zm-2.433-17.808a2.823 2.823 0 0 1 0-5.642 2.827 2.827 0 0 1 2.822 2.821c0 1.56-1.26 2.821-2.822 2.821Zm20.674 17.808h-4.866v-7.621c0-1.818-.037-4.155-2.529-4.155-2.535 0-2.924 1.978-2.924 4.023v7.753h-4.866v-15.668h4.668v2.14h.066c.653-1.231 2.243-2.528 4.61-2.528 4.925 0 5.84 3.246 5.84 7.468v8.588Z" fill="#fff" fill-rule="evenodd" data-name="Icon awesome-linkedin"/></svg>