<svg xmlns="http://www.w3.org/2000/svg" width="35.867" height="37.454" viewBox="1144.728 2978.567 35.867 37.454"><path d="M1177.784 3007.958s-.183 2.688-2.627 2.688c-1.888 0-3.177-1.44-4.384-3.31 3.429-2.992 5.606-7.46 5.606-12.454 0-9.01-7.085-16.315-15.826-16.315-8.74 0-15.825 7.305-15.825 16.315 0 9.01 7.085 16.314 15.825 16.314 1.587 0 3.118-.242 4.563-.69 1.827 2.905 4.148 5.515 7.78 5.515 7.393 0 7.699-8.063 7.699-8.063h-2.81Zm-17.23.55c-5.096 0-9.227-6.101-9.227-13.626 0-7.526 4.13-13.626 9.226-13.626 5.096 0 9.227 6.1 9.227 13.626 0 2.992-.654 5.759-1.761 8.007-1.251-1.786-2.752-3.307-4.9-3.791-3.808-.859-7.087.855-8.126 1.71l.978 2.017s.988-.568 3.439 0c1.544.357 2.744 2.5 4.119 4.958a6.58 6.58 0 0 1-2.976.725Z" fill="#fff" fill-rule="evenodd" data-name="quora"/></svg>