<svg xmlns="http://www.w3.org/2000/svg" width="24.527" height="24.527"><path d="M17.53 15.426H16.42l-.392-.379a9.075 9.075 0 0 0 2.201-5.932A9.115 9.115 0 0 0 9.115 0 9.115 9.115 0 0 0 0 9.115a9.115 9.115 0 0 0 9.115 9.115 9.075 9.075 0 0 0 5.932-2.201l.379.392v1.108l7.012 6.998 2.089-2.09-6.998-7.011Zm-8.415 0a6.302 6.302 0 0 1-6.31-6.31 6.302 6.302 0 0 1 6.31-6.311 6.302 6.302 0 0 1 6.31 6.31 6.302 6.302 0 0 1-6.31 6.31Z" fill="#fff" fill-rule="evenodd" data-name="Icon material-search"/></svg>