<svg xmlns="http://www.w3.org/2000/svg" width="711.218" height="433.363" viewBox="1097.91 2472.357 711.218 433.363"><g data-name="Mask Group 72" transform="translate(-3088.039 -3989.352)" clip-path="url(&quot;#a&quot;)"><path d="M4220.205 6827.047h676.961s-43.643-61.035-102.052-41.018c-58.41 20.017-160.378 31.502-186.344-40.034-25.966-71.535-75.187-154.884-168.708-131.914s-53.488 159.807-114.194 131.914c-60.707-27.892-127.649 10.83-139.79 81.052h34.127Z" fill="#daeaee" fill-rule="evenodd" data-name="Path 15386"/><g data-name="Group 9261"><path d="m4483.866 6562.886-7.403-3.193a4.53 4.53 0 0 1-2.708-3.538 4.53 4.53 0 0 1 1.601-4.158l6.204-5.15a.198.198 0 0 0 .054-.236l-9.397-20.575a.198.198 0 0 0-.213-.114l-7.955 1.316a4.582 4.582 0 0 1-4.428-1.81 4.507 4.507 0 0 1-.663-4.065l2.435-7.686a.2.2 0 0 0-.082-.228l-19.029-12.23a.2.2 0 0 0-.24.02l-5.981 5.408a4.47 4.47 0 0 1-3.042 1.182c-2.096 0-3.872-1.355-4.418-3.372l-2.107-7.783a.198.198 0 0 0-.192-.146h-22.62c-.09 0-.168.06-.192.146l-2.107 7.783c-.546 2.017-2.321 3.372-4.418 3.372a4.469 4.469 0 0 1-3.042-1.182l-5.98-5.407a.2.2 0 0 0-.241-.02l-19.029 12.23a.2.2 0 0 0-.082.227l2.435 7.686a4.509 4.509 0 0 1-.663 4.065 4.576 4.576 0 0 1-4.428 1.81l-7.955-1.316a.2.2 0 0 0-.213.114l-9.397 20.575a.198.198 0 0 0 .055.236l6.203 5.15a4.529 4.529 0 0 1 1.601 4.158 4.53 4.53 0 0 1-2.708 3.538l-7.403 3.193a.198.198 0 0 0-.118.211l3.22 22.39a.198.198 0 0 0 .172.168l8.003.978a4.528 4.528 0 0 1 3.594 2.632 4.529 4.529 0 0 1-.364 4.44l-4.502 6.69a.199.199 0 0 0 .015.24l14.812 17.095a.2.2 0 0 0 .237.05l7.262-3.505a4.53 4.53 0 0 1 1.981-.46c1.217 0 2.409.506 3.271 1.387a4.507 4.507 0 0 1 1.288 3.277l-.17 8.06c-.002.09.056.17.142.196l21.704 6.372a.199.199 0 0 0 .225-.086l4.215-6.874a4.53 4.53 0 0 1 3.887-2.177c1.599 0 3.052.814 3.887 2.177l4.215 6.874a.199.199 0 0 0 .225.086l21.704-6.372a.199.199 0 0 0 .142-.195l-.17-8.061a4.507 4.507 0 0 1 1.288-3.277 4.612 4.612 0 0 1 3.271-1.386c.683 0 1.35.155 1.981.46l7.262 3.503a.2.2 0 0 0 .237-.049l14.812-17.094a.199.199 0 0 0 .015-.241l-4.501-6.69a4.529 4.529 0 0 1-.365-4.44 4.529 4.529 0 0 1 3.594-2.632l8.003-.978c.09-.01.16-.08.173-.169l3.219-22.389a.198.198 0 0 0-.118-.21Zm-68.874 34.549c-18.012 0-32.613-14.602-32.613-32.614 0-18.011 14.601-32.612 32.613-32.612s32.613 14.6 32.613 32.612-14.601 32.614-32.613 32.614Z" fill="#1371b1" fill-rule="evenodd" data-name="Path 15427"/></g><g data-name="Path 15387"><path d="M4245.636 6826.883h167.846V6694.88c-23.311 12.02-40.706 26.901-44.769 42.64-13.106 50.757-35.134 63.112-66.964 49.986-31.83-13.126-56.113 39.377-56.113 39.377Z" fill="#a9cdd3" fill-rule="evenodd"/><path d="M4245.636 6826.883h167.846V6694.88c-23.311 12.02-40.706 26.901-44.769 42.64-13.106 50.757-35.134 63.112-66.964 49.986-31.83-13.126-56.113 39.377-56.113 39.377Z" stroke-linejoin="round" stroke-linecap="round" stroke-width="2" stroke="#fff" fill="transparent"/></g><g data-name="Path 15423"><path d="M4646.023 6826.883h-167.846V6694.88c23.312 12.02 40.706 26.902 44.769 42.64 13.106 50.757 35.134 63.112 66.964 49.986 31.83-13.126 56.113 39.377 56.113 39.377Z" fill="#a9cdd3" fill-rule="evenodd"/><path d="M4646.023 6826.883h-167.846V6694.88c23.312 12.02 40.706 26.902 44.769 42.64 13.106 50.757 35.134 63.112 66.964 49.986 31.83-13.126 56.113 39.377 56.113 39.377Z" stroke-linejoin="round" stroke-linecap="round" stroke-width="2" stroke="#fff" fill="transparent"/></g><path d="M4856.176 6515.961c12.942 0 22.728.759 19.427-4.927-3.301-5.685-7.749.683-9.39-3.411-1.643-4.094-6.281-10.916-13.969-5.23-7.687 5.685-.914 10.006-8.28 7.05-7.367-2.957-8.026 5.988-.306 6.518 7.721.531 12.518 0 12.518 0Z" fill="#daeaee" fill-rule="evenodd" data-name="Path 15404"/><path d="M4736.941 6583.724c19.618 0 34.45 1.15 29.447-7.468-5.003-8.618-11.744 1.034-14.234-5.17-2.49-6.205-9.52-16.547-21.172-7.929-11.652 8.618-1.385 15.167-12.55 10.686-11.166-4.481-12.166 9.077-.463 9.881 11.703.805 18.972 0 18.972 0Z" fill="#daeaee" fill-rule="evenodd" data-name="Path 15405"/><path d="M4208.068 6544.11c15.88 0 27.887.93 23.836-6.045-4.05-6.976-9.506.837-11.521-4.186-2.016-5.022-7.707-13.393-17.138-6.418-9.433 6.976-1.122 12.278-10.16 8.65-9.039-3.627-9.848 7.348-.375 8 9.474.65 15.358 0 15.358 0Z" fill="#daeaee" fill-rule="evenodd" data-name="Path 15406"/><path d="M4641.798 6753.191c8.616 0 15.13.505 12.933-3.28-2.198-3.785-5.159.454-6.252-2.27-1.093-2.726-4.18-7.267-9.299-3.483-5.117 3.785-.608 6.661-5.512 4.694-4.903-1.969-5.343 3.986-.203 4.34 5.14.353 8.333 0 8.333 0Z" stroke-linejoin="round" stroke-linecap="round" stroke="#9cb3b7" fill="transparent" data-name="Path 15407"/><path d="M4520.53 6474.002s37.231-18.86 55.847 12.003c16.428 27.235.734 50.704-10.533 56.827" stroke-dasharray="12 20" stroke-linejoin="round" stroke-linecap="round" stroke="#557f84" fill="transparent" data-name="Path 15418"/><path d="M4208.884 6747.964s40.69-46.924 96.146-22.642" stroke-dasharray="12 20" stroke-linejoin="round" stroke-linecap="round" stroke="#557f84" fill="transparent" data-name="Path 15419"/><path d="M4658.114 6774.544s31.502 27.236 104.021 5.907c72.52-21.33 102.381-12.47 132.899 25.267" stroke-dasharray="12 20" stroke-linejoin="round" stroke-linecap="round" stroke="#557f84" fill="transparent" data-name="Path 15420"/><path d="M4351.813 6505.414s-37.729 48.672-14.689 93.313" stroke-dasharray="12 20" stroke-linejoin="round" stroke-linecap="round" stroke="#557f84" fill="transparent" data-name="Path 15421"/><path d="M4415.759 6545.988c10.59 0 19.174 8.584 19.174 19.174s-8.584 19.175-19.174 19.175-19.175-8.585-19.175-19.175 8.585-19.174 19.175-19.174Z" fill="#1371b1" fill-rule="evenodd" data-name="Path 15506"/><g data-name="Group 9272"><path d="M4528.565 6705.33c-6.156-10.51-23.405-12.784-14.297-19.441-.257.186 3.485-3.096 4.395-4.124.384-.434.66-.73.888-.966.131-.25.29-.543.52-.948.384-.67 1.84-4.398 1.392-2.84.385-1.214.748-2.436.993-3.69.112-.634.194-1.08.254-1.37.065-.726.143-1.448.189-2.172.105-1.958.198-3.912.22-5.871.05-4.305.014-8.61.006-12.914-.01-5.688 1.868-10.153 4.813-13.422-5.322-3.431-11.092-3.886-13.173-.938l-.74 1.05-3.246 4.603-.19.27-2.427-1.713 3.215-4.558 3.267-4.633 2.632-3.73c2.184-3.096-.52-8.759-6.023-12.642-5.508-3.885-11.746-4.528-13.93-1.433l-2.632 3.732-3.268 4.63-3.215 4.56-2.427-1.714 14.684-20.816-.02-.016c.117-.164.246-.305.364-.473l19.309-27.373c3.533-5.01 1.921-12.218-3.58-16.1-5.511-3.887-12.838-2.98-16.37 2.027l-19.308 27.373c-.119.168-.212.334-.315.51l-.031-.02-42.51 60.265-11.222 21.99-3.15-60.846c1.704-7.17 2.764-14.123-3.166-18.305-5.917-4.175-14.115-2.764-18.296 3.165l-3.475 50.958s-5.875 13.916-1.792 35.672l9.565 19.245c.416 110.924 6.836 72.92.416 81.843l81.12 9.184c2.297-9.184.466-54.048.466-54.048 3.279-1.044 12.51-3.83 17.164-6.28 2.219-1.168 5.876-3.506 10.306-8.968 8.033-10.994 14.642-15.269 12.625-18.713Z" fill="#eeb38c" fill-rule="evenodd" data-name="Path 15488"/><path d="M4556.335 6542.677c-5.512-3.887-12.84-2.98-16.372 2.027l-19.307 27.373c-.119.168-.212.335-.315.51l-.031-.021-42.51 60.267-.183-.129c.039.24.075.481.113.722 1.436 8.898 2.081 19.246 5.208 27.859l.032.031a3.3 3.3 0 0 1 .12.06c.053-.377.558.077.838.444l.166.091.504.15c1.175.384 2.36.73 3.556 1.039.086.022.173.038.259.06.007-.007.016-.023.022-.03a339.14 339.14 0 0 0 3.884-5.395c7.91-11.266 15.222-22.924 22.161-34.812 3.435-5.885 8.663-8.983 14.173-9.804a22.567 22.567 0 0 1-.033-4.825l-.616.875-2.427-1.713 6.022-8.537a19.479 19.479 0 0 1 2.103-2.982l6.56-9.299-.021-.014c.116-.166.245-.306.364-.475l19.309-27.373c3.533-5.008 1.922-12.217-3.579-16.099Z" fill="#eeb38c" fill-rule="evenodd" data-name="Path 15489"/><path d="M4538.49 6706.508c0 3.54-2.947 6.435-6.556 6.435h-102.02c-3.605 0-6.556-2.895-6.556-6.435V6501.66c0-3.541 2.951-6.437 6.557-6.437h102.019c3.609 0 6.556 2.896 6.556 6.437v204.848Z" fill="#1b384c" fill-rule="evenodd" data-name="Path 15490"/><path d="M590.868 420.22H491.52l-.001 23.22-.008-.008v6.254l.007.007v17.256l-.002 20.894h-.005v5.164h.005l-.003 51.847h-.002v4.695h.002l-.001 23.965-.001-.001v21.858h104.572V420.22h-5.215Z" fill-rule="evenodd" fill="url(&quot;#b&quot;)" transform="translate(3937.128 6099.043)" data-name="Path 15491"/><g data-name="Group 9266"><path d="M4377.22 6753.455h130.438v141.617H4377.22v-141.617z" fill="#fff" fill-rule="evenodd" data-name="Rectangle 5166"/><path d="M4482.696 6774.878c3.276.18 6.097-2.318 6.277-5.6a5.937 5.937 0 0 0-5.6-6.268c-3.27-.19-6.099 2.316-6.28 5.595a5.948 5.948 0 0 0 5.603 6.273Z" fill="#0e2a30" fill-rule="evenodd" data-name="Path 15493"/><path d="M4369.223 6783.05h143.947v112.022h-143.947V6783.05z" fill="#12406f" fill-rule="evenodd" data-name="Rectangle 5167"/></g><path d="M4486.7 6703.999a4.54 4.54 0 1 1-9.082 0 4.54 4.54 0 0 1 9.081 0Z" fill="#fff" fill-rule="evenodd" data-name="Path 15494"/><path d="M4552.508 6656.909c1.307 4.928-1.49 9.943-6.243 11.204l-21.848 5.79c-4.752 1.258-9.665-1.713-10.972-6.64-1.304-4.925 1.49-9.942 6.243-11.202l21.848-5.79c4.752-1.259 9.667 1.713 10.972 6.638Z" fill="#eeb38c" fill-rule="evenodd" data-name="Path 15495"/><path d="M4463.019 6716.363c.401-1.631.755-3.263 1.034-4.886-.293-.877.604-18.257-19.675-32.463-9.387-6.573-20.451-5.105-25.521-4.64v41.989h44.162Z" fill="#eeb38c" fill-rule="evenodd" data-name="Path 15496"/><g data-name="Group 9271"><g data-name="Group 9269"><path d="m4480.923 6556.558 37.53 30.614-37.673 32.31-37.385-32.31 37.528-30.614Z" fill="#12406f" fill-rule="evenodd" data-name="Path 15497"/><path d="M4448.447 6563.401h64.74v3.46h-64.74v-3.46z" fill="#12406f" fill-rule="evenodd" data-name="Rectangle 5170"/><path d="M4448.447 6566.86h64.74v62.375h-64.74v-62.375z" fill="#f9f9f9" fill-rule="evenodd" data-name="Rectangle 5171"/><g data-name="Group 9267"><path d="M4454.02 6584.105h24.254v1.472h-24.253v-1.472z" fill="#b0b0b0" fill-rule="evenodd" data-name="Rectangle 5172"/><path d="M4454.02 6590.127h53.592v1.472h-53.591v-1.472z" fill="#b0b0b0" fill-rule="evenodd" data-name="Rectangle 5173"/><path d="M4454.02 6593.472h53.592v1.472h-53.591v-1.472z" fill="#b0b0b0" fill-rule="evenodd" data-name="Rectangle 5174"/><path d="M4454.02 6596.818h53.592v1.472h-53.591v-1.472z" fill="#b0b0b0" fill-rule="evenodd" data-name="Rectangle 5175"/><path d="M4454.02 6600.162h53.592v1.473h-53.591v-1.473z" fill="#b0b0b0" fill-rule="evenodd" data-name="Rectangle 5176"/></g><g data-name="Group 9268"><path d="M4454.02 6603.513h53.592v1.471h-53.591v-1.47z" fill="#b0b0b0" fill-rule="evenodd" data-name="Rectangle 5177"/><path d="M4454.02 6606.858h53.592v1.473h-53.591v-1.473z" fill="#b0b0b0" fill-rule="evenodd" data-name="Rectangle 5178"/><path d="M4454.02 6610.205h53.592v1.47h-53.591v-1.47z" fill="#b0b0b0" fill-rule="evenodd" data-name="Rectangle 5179"/><path d="M4454.02 6613.55h53.592v1.471h-53.591v-1.472z" fill="#b0b0b0" fill-rule="evenodd" data-name="Rectangle 5180"/></g><path d="M4518.454 6587.172v46.482a4.102 4.102 0 0 1-4.09 4.089h-66.881c-2.58 0 70.97-50.571 70.97-50.571Z" fill="#0d3359" fill-rule="evenodd" data-name="Path 15498"/><path d="M4443.395 6587.172v46.482a4.101 4.101 0 0 0 4.088 4.089h66.882c2.58 0-70.97-50.571-70.97-50.571Z" fill="#12406f" fill-rule="evenodd" data-name="Path 15499"/></g></g><path d="M4550.137 6606.498c2.63 5.575.73 11.996-4.24 14.338l-22.842 10.768c-4.972 2.344-11.132-.279-13.759-5.855-2.628-5.575-.731-11.995 4.238-14.338l22.844-10.768c4.97-2.342 11.132.278 13.76 5.855Z" fill="#eeb38c" fill-rule="evenodd" data-name="Path 15504"/><path d="M4552.032 6635.307c1.265 5.124-1.583 10.232-6.358 11.41l-21.941 5.415c-4.776 1.178-9.672-2.02-10.934-7.143-1.264-5.124 1.582-10.233 6.354-11.41l21.942-5.415c4.777-1.179 9.675 2.02 10.937 7.143Z" fill="#eeb38c" fill-rule="evenodd" data-name="Path 15505"/></g><g data-name="Group 9253"><path d="M4517.8 6531.73a33.025 33.025 0 1 1 .072.072z" fill="#1371b1" fill-rule="evenodd" data-name="Ellipse 328"/><g data-name="Group 9252"><g data-name="Group 9249"><path d="M4562.815 6494c-.003-.006-.006-.009-.006-.014-.003-.003-.003-.009-.006-.012l-.005-.005c0-.006-.003-.009-.006-.014-.002 0-.002-.003-.002-.003 0-.003-.003-.005-.006-.008-.014-.02-.028-.042-.048-.059a.43.43 0 0 0-.173-.112l-.03-.008a.423.423 0 0 0-.221.006l-.042.014-.006.002c-.016.009-.033.017-.047.026-.017.008-.03.019-.047.03l-2.806 1.692-28.228 17.05-.207.125a.42.42 0 0 0-.17.523l.055.134 3.286 7.794a.454.454 0 0 0 .21.257c.005.003.008.006.014.006a.36.36 0 0 0 .098.033.418.418 0 0 0 .371-.106l.179-.17 3.57-3.437.347-.332.301-.29-.517-.238-.298-.14h-.003l-.645.623h-.003l-2.607 2.51-.464.447-.33-.785-2.652-6.298 25.476-15.389.009-.005 2.286-1.38-3.83 3.686 5.784-4.618-.153.36 1.449-1.393c.01-.011.022-.02.03-.03a.336.336 0 0 0 .062-.079.142.142 0 0 0 .025-.044l.008-.014a.324.324 0 0 0 .025-.09.408.408 0 0 0-.028-.246Z" fill="#fff" fill-rule="evenodd" data-name="Path 15415"/></g><g data-name="Group 9250"><path d="M4562.815 6494c-.003-.006-.006-.009-.006-.014-.003-.003-.003-.009-.006-.012l-.005-.005c0-.003-.003-.006-.006-.009v-.005c-.002 0-.002-.003-.002-.003 0-.003-.003-.005-.006-.008-.014-.02-.028-.042-.048-.059a.43.43 0 0 0-.173-.112l-.03-.008a.423.423 0 0 0-.22.006l-.043.014c-.003 0-.003 0-.005.002-.017.009-.034.017-.048.026-.016.008-.03.019-.047.03l-5.014 4.004-.009.005-22.041 17.603c-.015.008-.025.02-.037.03a.22.22 0 0 0-.044.045c-.009.009-.014.017-.02.025a.47.47 0 0 0-.067.148v.006c-.003.014-.008.03-.008.047a.412.412 0 0 0 .24.422l.502.234 2.052.955h.003l.033.017.782.36.037.02 11.5 5.343a.425.425 0 0 0 .326.011.423.423 0 0 0 .235-.226l12.177-28.557a.333.333 0 0 0 .026-.09.411.411 0 0 0-.028-.246Zm-12.776 28.167-10.85-5.045-.516-.238-.298-.14h-.003l-2.236-1.04 19.476-15.551 5.784-4.618-.153.36-11.204 26.272Z" fill="#fff" fill-rule="evenodd" data-name="Path 15416"/></g><g data-name="Group 9251"><path d="M4531.145 6513.488a.416.416 0 0 1-.201-.052l-11.13-6.09a.419.419 0 0 1 .081-.767l42.416-12.81a.419.419 0 0 1 .337.76l-31.287 18.898a.417.417 0 0 1-.216.06Zm-10.052-6.396 10.042 5.494 28.229-17.051-38.27 11.557Z" fill="#fff" fill-rule="evenodd" data-name="Path 15417"/></g></g></g></g><defs><linearGradient x1=".5" y1="0" x2=".5" y2="1" id="b"><stop stop-color="#54a0d4" offset="0"/><stop stop-color="#fff" offset="1"/></linearGradient><clipPath id="a"><path d="M0 0h718v364H0V0z" data-name="Rectangle 5181" transform="translate(4173.039 6461.853)"/></clipPath></defs></svg>