<svg xmlns="http://www.w3.org/2000/svg" width="37.521" height="30.474" viewBox="967.932 2982.258 37.521 30.474"><path d="M1001.596 2989.852c.024.334.024.667.024 1 0 10.166-7.738 21.88-21.88 21.88a21.731 21.731 0 0 1-11.808-3.452c.619.071 1.214.095 1.857.095a15.4 15.4 0 0 0 9.547-3.285 7.704 7.704 0 0 1-7.19-5.334c.476.072.952.12 1.452.12.69 0 1.38-.096 2.024-.262a7.691 7.691 0 0 1-6.167-7.547v-.096a7.745 7.745 0 0 0 3.476.976 7.685 7.685 0 0 1-3.428-6.404c0-1.428.38-2.738 1.047-3.88a21.858 21.858 0 0 0 15.857 8.046 8.681 8.681 0 0 1-.19-1.761 7.687 7.687 0 0 1 7.689-7.69c2.214 0 4.214.928 5.619 2.428a15.14 15.14 0 0 0 4.88-1.857 7.67 7.67 0 0 1-3.38 4.238c1.547-.167 3.047-.595 4.428-1.19a16.53 16.53 0 0 1-3.857 3.975Z" fill="#fff" fill-rule="evenodd" data-name="Icon awesome-twitter"/></svg>