<svg xmlns="http://www.w3.org/2000/svg" width="48.103" height="33.822" viewBox="1050.372 2981.005 48.103 33.822"><path d="M1097.47 2986.297a6.044 6.044 0 0 0-4.253-4.28c-3.751-1.012-18.793-1.012-18.793-1.012s-15.042 0-18.794 1.012a6.044 6.044 0 0 0-4.253 4.28c-1.005 3.776-1.005 11.654-1.005 11.654s0 7.877 1.005 11.653c.554 2.083 2.184 3.655 4.253 4.212 3.752 1.011 18.794 1.011 18.794 1.011s15.042 0 18.793-1.011c2.07-.557 3.7-2.13 4.253-4.212 1.005-3.776 1.005-11.653 1.005-11.653s0-7.878-1.005-11.654Zm-27.966 18.806v-14.305l12.572 7.153-12.572 7.152Z" fill="#fff" fill-rule="evenodd" data-name="Icon awesome-youtube"/></svg>